<svg width="16" height="14" viewBox="0 0 16 14" fill="none" xmlns="http://www.w3.org/2000/svg">
<path d="M14.746 0.603208C14.506 0.399688 14.129 0.370568 13.7393 0.527048H13.7386C13.3287 0.691528 2.13511 5.49281 1.67943 5.68897C1.59655 5.71777 0.872713 5.98785 0.947273 6.58945C1.01383 7.13185 1.59559 7.35649 1.66663 7.38241L4.51239 8.35681C4.70119 8.98529 5.39719 11.304 5.55111 11.7994C5.64711 12.1082 5.80359 12.5139 6.07783 12.5974C6.31847 12.6902 6.55783 12.6054 6.71271 12.4838L8.45255 10.8701L11.2612 13.0605L11.3281 13.1005C11.5188 13.185 11.7015 13.2272 11.8759 13.2272C12.0106 13.2272 12.1399 13.2019 12.2634 13.1514C12.6842 12.9786 12.8526 12.5776 12.8702 12.5322L14.9681 1.62753C15.0961 1.04513 14.9182 0.748808 14.746 0.603208ZM7.02215 8.74657L6.06215 11.3066L5.10215 8.10657L12.4622 2.66657L7.02215 8.74657Z" fill="#FFC23E"/>
</svg>
