<svg width="14" height="15" viewBox="0 0 14 15" fill="none" xmlns="http://www.w3.org/2000/svg">
<path d="M9.88925 8.83984C9.94258 8.39984 9.98258 7.95984 9.98258 7.50651C9.98258 7.05318 9.94258 6.61318 9.88925 6.17318H12.1426C12.2493 6.59984 12.3159 7.04651 12.3159 7.50651C12.3159 7.96651 12.2493 8.41318 12.1426 8.83984H9.88925ZM8.70925 12.5465C9.10925 11.8065 9.41592 11.0065 9.62925 10.1732H11.5959C10.95 11.2854 9.92533 12.1278 8.70925 12.5465ZM8.54259 8.83984H5.42258C5.35592 8.39984 5.31592 7.95984 5.31592 7.50651C5.31592 7.05318 5.35592 6.60651 5.42258 6.17318H8.54259C8.60258 6.60651 8.64925 7.05318 8.64925 7.50651C8.64925 7.95984 8.60258 8.39984 8.54259 8.83984ZM6.98258 12.8132C6.42925 12.0132 5.98258 11.1265 5.70925 10.1732H8.25592C7.98258 11.1265 7.53592 12.0132 6.98258 12.8132ZM4.31592 4.83984H2.36925C3.00849 3.72465 4.03245 2.88083 5.24925 2.46651C4.84925 3.20651 4.54925 4.00651 4.31592 4.83984ZM2.36925 10.1732H4.31592C4.54925 11.0065 4.84925 11.8065 5.24925 12.5465C4.035 12.1276 3.01248 11.285 2.36925 10.1732ZM1.82258 8.83984C1.71592 8.41318 1.64925 7.96651 1.64925 7.50651C1.64925 7.04651 1.71592 6.59984 1.82258 6.17318H4.07592C4.02258 6.61318 3.98258 7.05318 3.98258 7.50651C3.98258 7.95984 4.02258 8.39984 4.07592 8.83984H1.82258ZM6.98258 2.19318C7.53592 2.99318 7.98258 3.88651 8.25592 4.83984H5.70925C5.98258 3.88651 6.42925 2.99318 6.98258 2.19318ZM11.5959 4.83984H9.62925C9.4206 4.01415 9.11163 3.21711 8.70925 2.46651C9.93592 2.88651 10.9559 3.73318 11.5959 4.83984ZM6.98258 0.839844C3.29592 0.839844 0.315918 3.83984 0.315918 7.50651C0.315918 9.27462 1.0183 10.9703 2.26854 12.2206C2.8876 12.8396 3.62252 13.3307 4.43136 13.6657C5.2402 14.0007 6.10711 14.1732 6.98258 14.1732C8.7507 14.1732 10.4464 13.4708 11.6966 12.2206C12.9469 10.9703 13.6493 9.27462 13.6493 7.50651C13.6493 6.63103 13.4768 5.76412 13.1418 4.95529C12.8068 4.14645 12.3157 3.41152 11.6966 2.79247C11.0776 2.17341 10.3426 1.68234 9.53381 1.34731C8.72497 1.01228 7.85806 0.839844 6.98258 0.839844Z" fill="white"/>
</svg>
