<svg width="13" height="10" viewBox="0 0 13 10" fill="none" xmlns="http://www.w3.org/2000/svg">
<path d="M12.4587 0.217797C11.9631 0.451936 11.1196 0.891022 10.6957 0.974947C10.6793 0.979204 10.6659 0.984677 10.6501 0.988934C10.1557 0.501196 9.47817 0.198944 8.72832 0.198944C7.21706 0.198944 5.99164 1.42437 5.99164 2.93563C5.99164 3.0153 5.98495 3.16186 5.99164 3.23971C4.0346 3.23971 2.60544 2.21862 1.5357 0.906226C1.39279 0.729862 1.24075 0.821693 1.20912 0.946972C1.13797 1.23037 1.11365 1.70412 1.11365 2.04225C1.11365 2.89428 1.77957 3.73109 2.81647 4.24985C2.62551 4.29911 2.41509 4.33438 2.19616 4.33438C1.9383 4.33438 1.64152 4.26688 1.38184 4.13065C1.28575 4.08017 1.07837 4.09416 1.1398 4.33985C1.3861 5.32445 2.50996 6.01592 3.51402 6.21722C3.28597 6.35162 2.79944 6.32426 2.57564 6.32426C2.49293 6.32426 2.20528 6.3048 2.01918 6.28169C1.84951 6.26101 1.58861 6.30479 1.80694 6.63563C2.27582 7.34534 3.33644 7.79112 4.24928 7.80815C3.40881 8.46738 2.03439 8.70821 0.717738 8.70821C0.451367 8.70213 0.464746 9.0056 0.679424 9.11811C1.65064 9.62774 3.24157 9.92938 4.37821 9.92938C8.89678 9.92938 11.465 6.48542 11.465 3.2391C11.465 3.1868 11.4638 3.07733 11.462 2.96725C11.462 2.95631 11.465 2.94597 11.465 2.93502C11.465 2.9186 11.4601 2.90279 11.4601 2.88637C11.4583 2.80366 11.4565 2.72643 11.4547 2.68629C11.8129 2.42782 12.3614 1.97901 12.6387 1.6354C12.733 1.51864 12.657 1.37694 12.5287 1.42133C12.1984 1.53627 11.6274 1.75886 11.2698 1.80143C11.9856 1.32768 12.3395 0.915348 12.6436 0.457409C12.7476 0.301114 12.6175 0.142386 12.4587 0.217797Z" fill="white"/>
</svg>
