<svg width="160" height="120" viewBox="0 0 160 120" fill="none" xmlns="http://www.w3.org/2000/svg">
<path d="M74.9999 76.6663H84.9999C93.3333 76.6663 96.6666 73.333 96.6666 64.9997V54.9997C96.6666 46.6663 93.3333 43.333 84.9999 43.333H74.9999C66.6666 43.333 63.3333 46.6663 63.3333 54.9997V64.9997C63.3333 73.333 66.6666 76.6663 74.9999 76.6663Z" stroke="#A1A7BB" stroke-width="1.5" stroke-linecap="round" stroke-linejoin="round"/>
<path d="M75.0001 56.6667C76.841 56.6667 78.3334 55.1743 78.3334 53.3333C78.3334 51.4924 76.841 50 75.0001 50C73.1591 50 71.6667 51.4924 71.6667 53.3333C71.6667 55.1743 73.1591 56.6667 75.0001 56.6667Z" stroke="#A1A7BB" stroke-width="1.5" stroke-linecap="round" stroke-linejoin="round"/>
<path d="M64.45 71.5836L72.6666 66.0669C73.9833 65.1836 75.8833 65.2836 77.0666 66.3003L77.6166 66.7836C78.9166 67.9003 81.0166 67.9003 82.3166 66.7836L89.25 60.8336C90.55 59.7169 92.65 59.7169 93.95 60.8336L96.6666 63.1669" stroke="#A1A7BB" stroke-width="1.5" stroke-linecap="round" stroke-linejoin="round"/>
<rect x="0.25" y="0.25" width="159.5" height="119.5" rx="4.75" stroke="#A1A7BB" stroke-width="0.5" stroke-linejoin="round" stroke-dasharray="15 15"/>
</svg>
