<svg width="172" height="42" viewBox="0 0 172 42" fill="none" xmlns="http://www.w3.org/2000/svg">
<path d="M36.225 13.7223V30.5958H42.2942V27.4146H44.6545V30.7717L42.866 33H35.1989L33.3957 30.7424V13.5171L35.1989 11.3181H42.866L44.6545 13.4877V16.9328H42.2942V13.7223H36.225ZM56.5436 26.5203H51.2074L50.1812 30.5958H51.5299V33H46.0032V30.5958H47.3665L51.6912 13.7223H50.3571V11.3181H55.5321L60.4285 30.5958H61.7772V33H56.2504V30.5958H57.5991L56.5436 26.5203ZM51.8378 24.1161H55.9132L53.9048 15.5841L51.8378 24.1161ZM68.4914 30.5958V33H62.9646V30.5958H64.328V13.7223H62.9646V11.3181H68.4914V13.7223H67.1427V21.6826L72.6401 13.7223H71.6139V11.3181H76.8182V13.7223H75.7333L72.1563 18.9852L75.9679 30.5958H77.3166V33H73.7249L70.06 22.225L67.1427 26.3298V30.5958H68.4914ZM90.3346 27.3853V33H78.5041V30.5958H79.8674V13.7223H78.5041V11.3181H90.3346V16.9328H87.9743V13.7223H82.6821V20.8177H86.7722V19.4543H89.1618V24.5706H86.7722V23.2072H82.6821V30.5958H87.9743V27.3853H90.3346ZM109.818 30.5958V33H104.291V30.5958H105.639V13.7223H102.312V16.9328H99.9368V11.3181H114.113V16.9328H111.738V13.7223H108.469V30.5958H109.818ZM128.201 30.7717L126.398 33H118.174L116.37 30.7424V13.5171L118.174 11.3181H126.398L128.201 13.4877V30.7717ZM119.2 13.7223V30.5958H125.386V13.7223H119.2ZM143.037 30.7717L141.234 33H133.009L131.206 30.7424V13.5171L133.009 11.3181H141.234L143.037 13.4877V30.7717ZM134.036 13.7223V30.5958H140.222V13.7223H134.036ZM149.619 30.5958H154.662V27.3853H157.037V33H145.441V30.5958H146.804V13.7223H145.441V11.3181H150.968V13.7223H149.619V30.5958ZM161.523 13.7223V19.5862L169.146 20.8177L170.377 22.7674V30.801L168.574 33H160.497L158.693 30.845V27.2094H161.523V30.5958H167.563V23.0899L160.379 21.9465L158.693 19.8794V13.5171L160.497 11.3181H168.574L170.377 13.4877V16.9914H167.563V13.7223H161.523Z" fill="#141316"/>
<rect x="1.56348" y="6.88086" width="15.9499" height="5.0039" rx="0.312743" fill="#E0B121"/>
<rect y="8.75781" width="4.06567" height="1.08418" rx="0.0667485" fill="#E0B121"/>
<rect x="15.0117" y="8.75781" width="4.06567" height="1.08418" rx="0.0667485" fill="#E0B121"/>
<path d="M0 29.7109L0 16.5757C0 16.403 0.14002 16.263 0.312743 16.263H5.0039C5.17662 16.263 5.31664 16.403 5.31664 16.5757L5.31664 29.7109H0Z" fill="#E0B121"/>
<path d="M13.7607 29.7109L13.7607 16.5757C13.7607 16.403 13.9008 16.263 14.0735 16.263H18.7646C18.9374 16.263 19.0774 16.403 19.0774 16.5757V29.7109H13.7607Z" fill="#E0B121"/>
<path d="M0 29.7109H19.0493V30.4123C19.0493 32.8305 17.089 34.7907 14.6709 34.7907H4.37841C1.96028 34.7907 0 32.8305 0 30.4123L0 29.7109Z" fill="#E0B121"/>
</svg>
