<svg width="143" height="42" viewBox="0 0 143 42" fill="none" xmlns="http://www.w3.org/2000/svg">
<path d="M36.152 13.725V30.5981H42.2167V27.4157H44.5885V30.7783L42.7871 33H35.1312L33.3298 30.7482V13.5148L35.1312 11.3231H42.7871L44.5885 13.4848V16.9375H42.2167V13.725H36.152ZM51.763 24.1131H55.8461L53.8346 15.5864L51.763 24.1131ZM56.4766 26.515H51.1325L50.1117 30.5981H51.4627V33H45.9384V30.5981H47.2895L51.6128 13.725H50.5921V11.3231H57.1371V13.725H56.0863L60.3496 30.5981H61.7007V33H56.1764V30.5981H57.5275L56.4766 26.515ZM68.4236 30.5981V33H62.8993V30.5981H64.2503V13.725H62.8993V11.3231H68.4236V13.725H67.0725V21.6812L72.5668 13.725H71.546V11.3231H76.7401V13.725H75.6592L72.0864 18.9791L75.8994 30.5981H77.2505V33H73.6477L69.9848 22.2216L67.0725 26.3348V30.5981H68.4236ZM90.2679 27.3856V33H78.4387V30.5981H79.7898V13.725H78.4387V11.3231H90.2679V16.9375H87.8961V13.725H82.612V20.8105H86.6952V19.4595H89.097V24.5634H86.6952V23.2124H82.612V30.5981H87.8961V27.3856H90.2679ZM104.191 13.725V22.0114H109.145V13.725H104.191ZM105.542 30.5981V33H100.018V30.5981H101.369V13.725H100.018V11.3231H110.166L111.967 13.4848V22.1916L110.166 24.4133H104.191V30.5981H105.542ZM117.175 24.1131H121.258L119.247 15.5864L117.175 24.1131ZM121.889 26.515H116.545L115.524 30.5981H116.875V33H111.351V30.5981H112.702L117.025 13.725H115.704V11.3231H122.85V13.725H121.499L125.762 30.5981H127.113V33H121.589V30.5981H122.94L121.889 26.515ZM132.485 13.725V30.5981H137.709V13.725H132.485ZM128.312 11.3231H138.73L140.531 13.4848V30.7783L138.73 33H128.312V30.5981H129.663V13.725H128.312V11.3231Z" fill="white"/>
<rect x="1.56006" y="6.896" width="15.9142" height="5.01493" rx="0.312743" fill="#E0B121"/>
<rect y="8.77661" width="4.05657" height="1.08657" rx="0.0667485" fill="#E0B121"/>
<rect x="14.978" y="8.77661" width="4.05657" height="1.08657" rx="0.0667485" fill="#E0B121"/>
<path d="M0 29.7766L0 16.6117C0 16.439 0.14002 16.299 0.312743 16.299H4.992C5.16472 16.299 5.30474 16.439 5.30474 16.6117L5.30474 29.7766H0Z" fill="#E0B121"/>
<path d="M13.73 29.7766L13.73 16.6117C13.73 16.439 13.87 16.299 14.0427 16.299H18.722C18.8947 16.299 19.0347 16.439 19.0347 16.6117V29.7766H13.73Z" fill="#E0B121"/>
<path d="M0 29.7766H19.0067V30.4892C19.0067 32.9073 17.0464 34.8676 14.6282 34.8676H4.37841C1.96028 34.8676 0 32.9073 0 30.4892L0 29.7766Z" fill="#E0B121"/>
</svg>
