<svg width="172" height="43" viewBox="0 0 172 43" fill="none" xmlns="http://www.w3.org/2000/svg">
<path d="M36.4537 14.278V31.1514H42.5229V27.9703H44.8832V31.3274L43.0947 33.5557H35.4276L33.6244 31.298V14.0727L35.4276 11.8737H43.0947L44.8832 14.0434V17.4885H42.5229V14.278H36.4537ZM56.7723 27.076H51.4361L50.4099 31.1514H51.7586V33.5557H46.2319V31.1514H47.5952L51.9199 14.278H50.5858V11.8737H55.7608L60.6572 31.1514H62.0059V33.5557H56.4791V31.1514H57.8278L56.7723 27.076ZM52.0665 24.6718H56.1419L54.1335 16.1398L52.0665 24.6718ZM68.7201 31.1514V33.5557H63.1933V31.1514H64.5567V14.278H63.1933V11.8737H68.7201V14.278H67.3714V22.2383L72.8688 14.278H71.8426V11.8737H77.0469V14.278H75.962L72.385 19.5408L76.1966 31.1514H77.5453V33.5557H73.9536L70.2887 22.7807L67.3714 26.8854V31.1514H68.7201ZM90.5633 27.9409V33.5557H78.7328V31.1514H80.0961V14.278H78.7328V11.8737H90.5633V17.4885H88.203V14.278H82.9108V21.3733H87.0009V20.01H89.3905V25.1262H87.0009V23.7629H82.9108V31.1514H88.203V27.9409H90.5633ZM110.046 31.1514V33.5557H104.519V31.1514H105.868V14.278H102.54V17.4885H100.165V11.8737H114.342V17.4885H111.967V14.278H108.697V31.1514H110.046ZM128.43 31.3274L126.626 33.5557H118.402L116.599 31.298V14.0727L118.402 11.8737H126.626L128.43 14.0434V31.3274ZM119.428 14.278V31.1514H125.615V14.278H119.428ZM143.265 31.3274L141.462 33.5557H133.238L131.435 31.298V14.0727L133.238 11.8737H141.462L143.265 14.0434V31.3274ZM134.264 14.278V31.1514H140.451V14.278H134.264ZM149.848 31.1514H154.891V27.9409H157.266V33.5557H145.67V31.1514H147.033V14.278H145.67V11.8737H151.196V14.278H149.848V31.1514ZM161.751 14.278V20.1419L169.375 21.3733L170.606 23.3231V31.3567L168.803 33.5557H160.725L158.922 31.4007V27.765H161.751V31.1514H167.791V23.6456L160.608 22.5021L158.922 20.4351V14.0727L160.725 11.8737H168.803L170.606 14.0434V17.5471H167.791V14.278H161.751Z" fill="#222531"/>
<rect x="1.79294" y="7.43555" width="15.9499" height="5.0039" rx="0.312743" fill="#222531"/>
<rect x="0.229248" y="9.31201" width="4.06567" height="1.08418" rx="0.0667485" fill="#222531"/>
<rect x="15.2409" y="9.31201" width="4.06567" height="1.08418" rx="0.0667485" fill="#222531"/>
<path d="M0.229248 30.2659L0.229248 17.1306C0.229248 16.9579 0.369268 16.8179 0.541992 16.8179H5.23314C5.40587 16.8179 5.54589 16.9579 5.54589 17.1306L5.54589 30.2659H0.229248Z" fill="#222531"/>
<path d="M13.99 30.2659L13.99 17.1306C13.99 16.9579 14.13 16.8179 14.3027 16.8179H18.9939C19.1666 16.8179 19.3066 16.9579 19.3066 17.1306V30.2659H13.99Z" fill="#222531"/>
<path d="M0.229248 30.2659H19.2785V30.9673C19.2785 33.3854 17.3182 35.3457 14.9001 35.3457H4.60766C2.18953 35.3457 0.229248 33.3854 0.229248 30.9673L0.229248 30.2659Z" fill="#222531"/>
</svg>
