<svg width="40" height="40" viewBox="0 0 40 40" fill="none" xmlns="http://www.w3.org/2000/svg">
<circle cx="20" cy="20" r="20" fill="#FFC736"/>
<path fill-rule="evenodd" clip-rule="evenodd" d="M26.7071 13.2929C27.0976 13.6834 27.0976 14.3166 26.7071 14.7071L14.7071 26.7071C14.3166 27.0976 13.6834 27.0976 13.2929 26.7071C12.9024 26.3166 12.9024 25.6834 13.2929 25.2929L25.2929 13.2929C25.6834 12.9024 26.3166 12.9024 26.7071 13.2929Z" fill="#1B1B1B"/>
<path fill-rule="evenodd" clip-rule="evenodd" d="M13.2929 13.2929C13.6834 12.9024 14.3166 12.9024 14.7071 13.2929L26.7071 25.2929C27.0976 25.6834 27.0976 26.3166 26.7071 26.7071C26.3166 27.0976 25.6834 27.0976 25.2929 26.7071L13.2929 14.7071C12.9024 14.3166 12.9024 13.6834 13.2929 13.2929Z" fill="#1B1B1B"/>
</svg>
