<svg width="80" height="80" viewBox="0 0 80 80" fill="none" xmlns="http://www.w3.org/2000/svg">
<rect width="80" height="80" rx="40" fill="url(#paint0_linear_1921_3715)"/>
<path d="M45.2266 31.0002C45.1123 31.0031 44.9922 31.0177 44.875 31.047L32.6875 34.258C31.7031 34.5158 31 35.4181 31 36.4377V46.7502C31 47.9835 32.0166 49.0002 33.25 49.0002H46.75C47.9834 49.0002 49 47.9835 49 46.7502V37.0002C49 35.7668 47.9834 34.7502 46.75 34.7502H36.7188L45.25 32.5002V34.0002H46.75V32.5002C46.75 31.6564 46.0322 30.9884 45.2266 31.0002ZM33.25 36.2502H46.75C47.1748 36.2502 47.5 36.5753 47.5 37.0002V46.7502C47.5 47.175 47.1748 47.5002 46.75 47.5002H33.25C32.8252 47.5002 32.5 47.175 32.5 46.7502V37.0002C32.5 36.5753 32.8252 36.2502 33.25 36.2502ZM44.875 40.7502C44.2539 40.7502 43.75 41.2541 43.75 41.8752C43.75 42.4962 44.2539 43.0002 44.875 43.0002C45.4961 43.0002 46 42.4962 46 41.8752C46 41.2541 45.4961 40.7502 44.875 40.7502Z" fill="#1B1B1B"/>
<defs>
<linearGradient id="paint0_linear_1921_3715" x1="-22.7869" y1="39.2157" x2="105.902" y2="39.2157" gradientUnits="userSpaceOnUse">
<stop stop-color="#FFEA28"/>
<stop offset="0.442695" stop-color="#FFC505"/>
<stop offset="1" stop-color="#FF9048"/>
</linearGradient>
</defs>
</svg>
