<svg width="64" height="64" viewBox="0 0 64 64" fill="none" xmlns="http://www.w3.org/2000/svg">
<circle cx="32" cy="32" r="32" fill="#F8CDFF"/>
<path d="M32 38.5V39.38C32 41.25 31.25 42 29.37 42H24.62C23.17 42 22 40.83 22 39.38V34.63C22 32.75 22.75 32 24.62 32H25.5V35.5C25.5 37.16 26.84 38.5 28.5 38.5H32Z" fill="#E02194"/>
<path d="M37 33.5V34.37C37 35.82 35.82 37 34.37 37H29.62C27.75 37 27 36.25 27 34.37V29.62C27 28.17 28.17 27 29.62 27H30.5V30.5C30.5 32.16 31.84 33.5 33.5 33.5H37Z" fill="#E02194"/>
<path d="M42 24.62V29.37C42 31.25 41.25 32 39.37 32H34.62C32.75 32 32 31.25 32 29.37V24.62C32 22.75 32.75 22 34.62 22H39.37C41.25 22 42 22.75 42 24.62Z" fill="#E02194"/>
</svg>
