<svg width="64" height="64" viewBox="0 0 64 64" fill="none" xmlns="http://www.w3.org/2000/svg">
<circle cx="32" cy="32" r="32" fill="#FDFFCD"/>
<path d="M42 25.15V28.85C42 31.1 41.1 32 38.85 32H36.15C33.9 32 33 31.1 33 28.85V25.15C33 22.9 33.9 22 36.15 22H38.85C41.1 22 42 22.9 42 25.15Z" fill="#E7A600"/>
<path d="M31 35.15V38.85C31 41.1 30.1 42 27.85 42H25.15C22.9 42 22 41.1 22 38.85V35.15C22 32.9 22.9 32 25.15 32H27.85C30.1 32 31 32.9 31 35.15Z" fill="#E7A600"/>
<path d="M34.78 41.9995C34.51 41.9995 34.26 41.8495 34.13 41.6195C34 41.3795 34 41.0995 34.14 40.8595L35.11 39.2395C35.32 38.8795 35.78 38.7695 36.14 38.9795C36.5 39.1895 36.61 39.6495 36.4 40.0095L36.22 40.3095C38.69 39.6695 40.51 37.4295 40.51 34.7695C40.51 34.3595 40.85 34.0195 41.26 34.0195C41.67 34.0195 42 34.3595 42 34.7795C42 38.7595 38.76 41.9995 34.78 41.9995Z" fill="#E7A600"/>
<path d="M22.75 29.97C22.34 29.97 22 29.64 22 29.22C22 25.24 25.24 22 29.22 22C29.5 22 29.74 22.15 29.88 22.38C30.01 22.62 30.01 22.9 29.87 23.14L28.9 24.75C28.68 25.11 28.22 25.23 27.87 25.01C27.51 24.8 27.4 24.34 27.61 23.98L27.79 23.68C25.33 24.32 23.5 26.56 23.5 29.22C23.5 29.64 23.16 29.97 22.75 29.97Z" fill="#E7A600"/>
</svg>
