<svg width="64" height="64" viewBox="0 0 64 64" fill="none" xmlns="http://www.w3.org/2000/svg">
<circle cx="32" cy="32" r="32" fill="#CDF6FF"/>
<path d="M25.25 28.5C27.0449 28.5 28.5 27.0449 28.5 25.25C28.5 23.4551 27.0449 22 25.25 22C23.4551 22 22 23.4551 22 25.25C22 27.0449 23.4551 28.5 25.25 28.5Z" fill="#1E56AA"/>
<path d="M25 42C26.6569 42 28 40.6569 28 39C28 37.3431 26.6569 36 25 36C23.3431 36 22 37.3431 22 39C22 40.6569 23.3431 42 25 42Z" fill="#1E56AA"/>
<path d="M39 42C40.6569 42 42 40.6569 42 39C42 37.3431 40.6569 36 39 36C37.3431 36 36 37.3431 36 39C36 40.6569 37.3431 42 39 42Z" fill="#1E56AA"/>
<path d="M39.17 35.98C38.2 33.2 35.58 31.33 32.63 31.33C32.62 31.33 32.61 31.33 32.6 31.33L29.07 31.34C27.55 31.36 26.19 30.33 25.78 28.85V27.01C25.78 26.59 25.44 26.25 25.01 26.25C24.58 26.25 24.25 26.59 24.25 27.01V38.23C24.25 38.65 24.59 38.99 25.01 38.99C25.43 38.99 25.78 38.65 25.78 38.23V31.61C26.66 32.39 27.81 32.87 29.06 32.87C29.07 32.87 29.07 32.87 29.08 32.87L32.61 32.86C32.62 32.86 32.62 32.86 32.63 32.86C34.92 32.86 36.97 34.31 37.72 36.48C37.84 36.8 38.13 37 38.45 37C38.53 37 38.62 36.99 38.7 36.96C39.1 36.82 39.31 36.38 39.17 35.98Z" fill="#1E56AA"/>
</svg>
