<svg width="64" height="64" viewBox="0 0 64 64" fill="none" xmlns="http://www.w3.org/2000/svg">
<circle cx="32" cy="32" r="32" fill="#D4FFCD"/>
<path d="M22.5083 20.1328C21.2113 20.1328 20.1353 21.2089 20.1353 22.5058V30.8113C20.1353 32.1083 21.2113 33.1844 22.5083 33.1844H28.4408C29.7377 33.1844 30.8138 32.1083 30.8138 30.8113V22.5058C30.8138 21.2089 29.7377 20.1328 28.4408 20.1328H22.5083ZM35.5598 20.1328C34.2629 20.1328 33.1868 21.2089 33.1868 22.5058V26.0653C33.1868 27.3623 34.2629 28.4383 35.5598 28.4383H41.4923C42.7892 28.4383 43.8653 27.3623 43.8653 26.0653V22.5058C43.8653 21.2089 42.7892 20.1328 41.4923 20.1328H35.5598ZM22.5083 22.5058H28.4408V30.8113H22.5083V22.5058ZM35.5598 22.5058H41.4923V26.0653H35.5598V22.5058ZM35.5598 30.8113C34.2629 30.8113 33.1868 31.8874 33.1868 33.1844V41.4899C33.1868 42.7868 34.2629 43.8629 35.5598 43.8629H41.4923C42.7892 43.8629 43.8653 42.7868 43.8653 41.4899V33.1844C43.8653 31.8874 42.7892 30.8113 41.4923 30.8113H35.5598ZM35.5598 33.1844H41.4923V41.4899H35.5598V33.1844ZM22.5083 35.5574C21.2113 35.5574 20.1353 36.6334 20.1353 37.9304V41.4899C20.1353 42.7868 21.2113 43.8629 22.5083 43.8629H28.4408C29.7377 43.8629 30.8138 42.7868 30.8138 41.4899V37.9304C30.8138 36.6334 29.7377 35.5574 28.4408 35.5574H22.5083ZM22.5083 37.9304H28.4408V41.4899H22.5083V37.9304Z" fill="#54C4A7"/>
</svg>
