<svg width="16" height="16" viewBox="0 0 16 16" fill="none" xmlns="http://www.w3.org/2000/svg">
<path d="M9.6396 2.07187H6.11232C5.69878 2.07187 5.11494 2.31513 4.82303 2.60705L2.32961 5.10048C2.0377 5.39239 1.79443 5.97621 1.79443 6.38976V9.91703C1.79443 10.3306 2.0377 10.9144 2.32961 11.2063L4.82303 13.6997C5.11494 13.9917 5.69878 14.2349 6.11232 14.2349H9.6396C10.0531 14.2349 10.637 13.9917 10.9289 13.6997L13.4223 11.2063C13.7142 10.9144 13.9575 10.3306 13.9575 9.91703V6.38976C13.9575 5.97621 13.7142 5.39239 13.4223 5.10048L10.9289 2.60705C10.637 2.31513 10.0531 2.07187 9.6396 2.07187Z" stroke="#FFC23E" stroke-width="1.36834" stroke-linecap="round" stroke-linejoin="round"/>
<path d="M3.58252 12.4591L12.1818 3.85984" stroke="#FFC23E" stroke-width="1.36834" stroke-linecap="round" stroke-linejoin="round"/>
</svg>
