<svg width="61" height="61" viewBox="0 0 61 61" fill="none" xmlns="http://www.w3.org/2000/svg">
<g clip-path="url(#clip0_1112_6945)">
<path d="M30.2441 60.866C46.8127 60.866 60.2441 47.4346 60.2441 30.866C60.2441 14.2975 46.8127 0.866028 30.2441 0.866028C13.6756 0.866028 0.244141 14.2975 0.244141 30.866C0.244141 47.4346 13.6756 60.866 30.2441 60.866Z" fill="#DFF1FE"/>
<path d="M22.7557 25.8757C22.7557 24.5815 22.6849 23.2749 22.7674 21.9683C22.9915 18.3198 26.3048 15.0903 29.7951 14.8808C33.7688 14.6466 36.6812 17.2351 37.6363 20.1317C37.9311 21.0069 37.9783 21.9683 38.1198 22.8928C38.1669 23.2133 38.1198 23.5461 38.1198 23.8789C38.1198 24.4952 37.9193 25.2471 38.1905 25.6908C38.4263 26.0853 39.181 26.1592 39.7116 26.3441C40.3247 26.5537 40.6077 26.8865 40.6077 27.6384C40.5724 32.6305 40.5842 37.6226 40.5959 42.6147C40.5959 43.0462 40.5016 43.2434 40.0771 43.3913C36.917 44.513 33.7806 45.6716 30.6323 46.8057C30.4672 46.8673 30.2432 46.8919 30.0781 46.8303C26.9298 45.6716 23.8051 44.5006 20.6568 43.3543C20.2913 43.2187 20.2441 43.0092 20.2441 42.6764C20.2559 37.598 20.2559 32.5196 20.2441 27.4412C20.2441 26.8988 20.4563 26.5783 20.9162 26.4304C21.4586 26.2579 22.0246 26.0976 22.7557 25.8757ZM37.2 35.3053H37.1882C37.1882 33.7275 37.1765 32.1498 37.2 30.572C37.2 30.2146 37.0939 30.0297 36.7756 29.9557C36.5633 29.9064 36.3511 29.8448 36.1388 29.8201C33.2853 29.4257 30.42 29.3764 27.5547 29.5243C26.2813 29.5859 25.0196 29.7708 23.7461 29.9187C23.3216 29.968 23.133 30.1899 23.133 30.6953C23.1566 33.7768 23.1448 36.8461 23.133 39.9276C23.133 40.2728 23.2155 40.433 23.5339 40.5563C25.5738 41.2958 27.6019 42.0477 29.63 42.8243C30.0899 42.9969 30.479 43.0092 30.9271 42.8243C32.8726 42.0601 34.8182 41.3082 36.7756 40.5686C37.1057 40.4453 37.2236 40.2851 37.2118 39.9153C37.1882 38.3745 37.2 36.8337 37.2 35.3053ZM34.9125 25.4566C34.9125 24.5815 34.9361 23.6817 34.9125 22.7819C34.8536 20.4769 33.1556 18.5293 30.9978 18.2581C28.7457 17.9746 26.5643 19.4168 26.0808 21.6848C25.8214 22.9174 25.8804 24.2117 25.7978 25.4566C28.9107 25.4566 31.8821 25.4566 34.9125 25.4566Z" fill="#102534"/>
</g>
<defs>
<clipPath id="clip0_1112_6945">
<rect width="60" height="60" fill="white" transform="translate(0.244141 0.866028)"/>
</clipPath>
</defs>
</svg>
