<svg width="61" height="61" viewBox="0 0 61 61" fill="none" xmlns="http://www.w3.org/2000/svg">
<g clip-path="url(#clip0_1112_6941)">
<path d="M30.7325 60.866C47.3011 60.866 60.7325 47.4346 60.7325 30.866C60.7325 14.2975 47.3011 0.866028 30.7325 0.866028C14.164 0.866028 0.732544 14.2975 0.732544 30.866C0.732544 47.4346 14.164 60.866 30.7325 60.866Z" fill="#ADF4EC"/>
<path d="M30.7325 46.866C39.5691 46.866 46.7325 39.7026 46.7325 30.866C46.7325 22.0295 39.5691 14.866 30.7325 14.866C21.896 14.866 14.7325 22.0295 14.7325 30.866C14.7325 39.7026 21.896 46.866 30.7325 46.866Z" fill="#4794A2"/>
<path fill-rule="evenodd" clip-rule="evenodd" d="M26.7449 21.6932C27.9644 21.1629 29.3112 20.866 30.7322 20.866C36.2573 20.866 40.7325 25.3412 40.7325 30.8769C40.7325 32.2661 40.4462 33.5917 39.9371 34.79L29.1203 30.1981H35.8967C35.568 27.6318 33.3834 25.6593 30.7322 25.6593C30.1914 25.6593 29.6612 25.7336 29.1733 25.8926L26.7449 21.6932ZM25.5258 30.8766C25.5258 33.7505 27.8589 36.0836 30.7327 36.0836C31.1251 36.0836 31.5069 36.0305 31.8675 35.9563L34.3702 40.1876C33.2461 40.6224 32.0159 40.8663 30.7327 40.8663C25.2077 40.8663 20.7325 36.3911 20.7325 30.866C20.7325 29.6147 20.9658 28.4163 21.3794 27.3135L25.7909 29.2435C25.6213 29.7631 25.5258 30.304 25.5258 30.8766Z" fill="white"/>
</g>
<defs>
<clipPath id="clip0_1112_6941">
<rect width="60" height="60" fill="white" transform="translate(0.732544 0.866028)"/>
</clipPath>
</defs>
</svg>
