<svg width="60" height="61" viewBox="0 0 60 61" fill="none" xmlns="http://www.w3.org/2000/svg">
<g clip-path="url(#clip0_1112_6948)">
<path d="M29.9999 60.866C46.5685 60.866 59.9999 47.4346 59.9999 30.866C59.9999 14.2975 46.5685 0.866028 29.9999 0.866028C13.4314 0.866028 -6.10352e-05 14.2975 -6.10352e-05 30.866C-6.10352e-05 47.4346 13.4314 60.866 29.9999 60.866Z" fill="#DFF1FE"/>
<path fill-rule="evenodd" clip-rule="evenodd" d="M22.7496 44.866V38.116H15.9999V38.866C15.9999 42.1797 18.6862 44.866 21.9999 44.866H22.7496ZM26.7496 44.866H33.2496V38.116H26.7496V44.866ZM37.2496 44.866H37.9999C41.3136 44.866 43.9999 42.1797 43.9999 38.866V22.866C43.9999 19.5523 41.3136 16.866 37.9999 16.866H26.7496V34.116H43.9996V38.116H37.2496V44.866ZM22.7496 16.866H21.9999C18.6862 16.866 15.9999 19.5523 15.9999 22.866V23.616H22.7496V16.866ZM15.9999 27.616V34.116H22.7496V27.616H15.9999Z" fill="#102534"/>
</g>
<defs>
<clipPath id="clip0_1112_6948">
<rect width="60" height="60" fill="white" transform="translate(-6.10352e-05 0.866028)"/>
</clipPath>
</defs>
</svg>
