<svg width="61" height="61" viewBox="0 0 61 61" fill="none" xmlns="http://www.w3.org/2000/svg">
<g clip-path="url(#clip0_1111_6773)">
<path d="M30.9768 60.866C47.5453 60.866 60.9768 47.4346 60.9768 30.866C60.9768 14.2975 47.5453 0.866028 30.9768 0.866028C14.4083 0.866028 0.976807 14.2975 0.976807 30.866C0.976807 47.4346 14.4083 60.866 30.9768 60.866Z" fill="#D9ECFF"/>
<path fill-rule="evenodd" clip-rule="evenodd" d="M30.9768 25.7899C27.8462 25.7899 25.433 27.5608 24.0877 28.8011C23.8873 28.9859 23.5767 28.9861 23.3822 28.7951L21.2706 26.7213C21.071 26.5253 21.0692 26.2044 21.2737 26.0136C22.8828 24.5118 26.2756 21.866 30.9768 21.866C35.678 21.866 39.0708 24.5118 40.6799 26.0136C40.8844 26.2044 40.8826 26.5253 40.683 26.7213L38.5714 28.7951C38.3769 28.9861 38.0663 28.9859 37.8659 28.8011C36.5206 27.5608 34.1074 25.7899 30.9768 25.7899ZM15.3552 32.8086C15.1473 32.6215 15.1333 32.3003 15.3242 32.0959L17.3416 29.9345C17.5276 29.7352 17.839 29.7217 18.0416 29.9041L23.9985 35.2667C24.1874 35.4368 24.4738 35.4381 24.6642 35.2698L30.6457 29.9829C30.8348 29.8157 31.1188 29.8157 31.3079 29.9829L37.2894 35.2698C37.4798 35.4381 37.7662 35.4368 37.9551 35.2667L43.912 29.9041C44.1146 29.7217 44.426 29.7352 44.612 29.9345L46.6294 32.0959C46.8203 32.3003 46.8063 32.6215 46.5984 32.8086L37.9797 40.5676C37.7909 40.7376 37.5045 40.7389 37.3141 40.5706L31.3079 35.2619C31.1188 35.0948 30.8348 35.0948 30.6457 35.2619L24.6395 40.5706C24.4491 40.7389 24.1627 40.7376 23.9739 40.5676L15.3552 32.8086Z" fill="#278FFC"/>
</g>
<defs>
<clipPath id="clip0_1111_6773">
<rect width="60" height="60" fill="white" transform="translate(0.976807 0.866028)"/>
</clipPath>
</defs>
</svg>
