<svg width="61" height="61" viewBox="0 0 61 61" fill="none" xmlns="http://www.w3.org/2000/svg">
<g clip-path="url(#clip0_1112_6938)">
<path d="M30.9768 60.866C47.5453 60.866 60.9768 47.4346 60.9768 30.866C60.9768 14.2975 47.5453 0.866028 30.9768 0.866028C14.4083 0.866028 0.976807 14.2975 0.976807 30.866C0.976807 47.4346 14.4083 60.866 30.9768 60.866Z" fill="#D9E8FF"/>
<path fill-rule="evenodd" clip-rule="evenodd" d="M17.9768 25.266V16.866H34.3979V30.866V44.866H26.1873V25.266H17.9768ZM39.8717 25.266C42.139 25.266 43.977 23.3856 43.977 21.066C43.977 18.7464 42.139 16.866 39.8717 16.866C37.6045 16.866 35.7665 18.7464 35.7665 21.066C35.7665 23.3856 37.6045 25.266 39.8717 25.266Z" fill="#438BF3"/>
</g>
<defs>
<clipPath id="clip0_1112_6938">
<rect width="60" height="60" fill="white" transform="translate(0.976807 0.866028)"/>
</clipPath>
</defs>
</svg>
