<svg width="34" height="34" viewBox="0 0 34 34" fill="none" xmlns="http://www.w3.org/2000/svg">
<g clip-path="url(#clip0_1114_7616)">
<path d="M17.4767 33.9987C26.5894 33.9987 33.9767 26.6114 33.9767 17.4987C33.9767 8.38596 26.5894 0.998657 17.4767 0.998657C8.36405 0.998657 0.976746 8.38596 0.976746 17.4987C0.976746 26.6114 8.36405 33.9987 17.4767 33.9987Z" fill="#FFD3A2"/>
<path fill-rule="evenodd" clip-rule="evenodd" d="M21.2408 23.9086L18.9321 24.5283V23.7133L18.7481 23.5266H17.4264V24.4773V25.1479H18.8401L20.58 24.384L21.2408 23.9086Z" fill="#CDBDB2"/>
<path fill-rule="evenodd" clip-rule="evenodd" d="M13.7125 23.9086L15.9711 24.5283V23.7133L16.1635 23.5266H17.4767V24.4773V25.1479H16.0631L14.3232 24.384L13.7125 23.9086Z" fill="#CDBDB2"/>
<path fill-rule="evenodd" clip-rule="evenodd" d="M18.7483 22.1427L18.9323 23.7131L18.6981 23.5263H16.2555L15.9711 23.7131L16.1635 22.1427L16.5399 21.905L18.422 21.9475L18.7483 22.1427Z" fill="#393939"/>
<path fill-rule="evenodd" clip-rule="evenodd" d="M20.0199 11.4894L18.8907 14.1633L18.3721 21.9473H16.5402L15.9713 14.1633L14.9341 11.4894H20.0199Z" fill="#F89C35"/>
<path fill-rule="evenodd" clip-rule="evenodd" d="M24.9551 17.3637L26.2767 21.2345L22.981 21.0393H20.8646V19.3671L20.9567 15.9377L21.4334 16.3112L24.9551 17.3637Z" fill="#F89D35"/>
<path fill-rule="evenodd" clip-rule="evenodd" d="M22.4617 17.7967L18.6055 17.89L19.032 19.8933L20.864 19.418L22.4617 17.7967Z" fill="#D87C30"/>
<path fill-rule="evenodd" clip-rule="evenodd" d="M22.4617 17.839L20.864 19.3669V20.8948L22.4617 17.839Z" fill="#EA8D3A"/>
<path fill-rule="evenodd" clip-rule="evenodd" d="M20.8643 19.4177L18.9822 19.893L18.3715 21.9473L18.7982 22.185L20.8643 20.9456V19.4177Z" fill="#F89D35"/>
<path fill-rule="evenodd" clip-rule="evenodd" d="M20.8644 20.946L21.2408 23.9085L18.7481 22.1429L20.8644 20.946Z" fill="#EB8F35"/>
<path fill-rule="evenodd" clip-rule="evenodd" d="M18.6072 17.89L18.3732 21.9475L19.0752 19.8763L18.6072 17.89Z" fill="#EA8E3A"/>
<path fill-rule="evenodd" clip-rule="evenodd" d="M23.0315 20.9969L20.865 20.946L21.2414 23.9085L23.0315 20.9969Z" fill="#D87C30"/>
<path fill-rule="evenodd" clip-rule="evenodd" d="M25.2395 25.1987L21.2411 23.9084L23.0311 20.9968L26.2767 21.2345L25.2395 25.1987Z" fill="#EB8F35"/>
<path fill-rule="evenodd" clip-rule="evenodd" d="M18.8899 14.1635L20.9141 15.8867L22.4617 17.7966L18.6055 17.9409L18.8899 14.1635Z" fill="#E8821E"/>
<path fill-rule="evenodd" clip-rule="evenodd" d="M21.2408 23.9084L18.7481 22.1428L18.9321 23.6707V24.5281L20.6302 24.197L21.2408 23.9084Z" fill="#DFCEC3"/>
<path fill-rule="evenodd" clip-rule="evenodd" d="M13.7126 23.9084L16.1635 22.1428L15.9711 23.6707V24.5281L14.2814 24.197L13.7126 23.9084Z" fill="#DFCEC3"/>
<path fill-rule="evenodd" clip-rule="evenodd" d="M19.6439 18.7472L19.1253 19.8507L20.9572 19.3669L19.6439 18.7472Z" fill="#393939"/>
<path fill-rule="evenodd" clip-rule="evenodd" d="M25.2908 9.24866L18.8916 14.1635L19.9707 11.4896L25.2908 9.24866Z" fill="#E88F35"/>
<path fill-rule="evenodd" clip-rule="evenodd" d="M25.2897 9.24866L26.1346 11.8716L25.6661 14.7407L25.9923 14.9275L25.5239 15.3604L25.9003 15.6915L25.3817 16.1668L25.7079 16.4554L24.9551 17.4061L21.4251 16.3112C19.7019 14.9105 18.8487 14.1975 18.8822 14.1635C18.9157 14.1296 21.057 12.4913 25.2897 9.24866Z" fill="#8E5A30"/>
<path fill-rule="evenodd" clip-rule="evenodd" d="M9.99839 17.3637L8.67674 21.2345L11.9725 21.0393H14.0889V19.3671L13.9968 15.9377L13.5284 16.3112L9.99839 17.3637Z" fill="#F89D35"/>
<path fill-rule="evenodd" clip-rule="evenodd" d="M12.4918 17.7967L16.348 17.89L15.9298 19.8933L14.0895 19.418L12.4918 17.7967Z" fill="#D87C30"/>
<path fill-rule="evenodd" clip-rule="evenodd" d="M12.4918 17.839L14.0895 19.3669V20.8948L12.4918 17.839Z" fill="#EA8D3A"/>
<path fill-rule="evenodd" clip-rule="evenodd" d="M14.0892 19.4177L15.9713 19.893L16.582 21.9473L16.1637 22.185L14.0892 20.9456V19.4177Z" fill="#F89D35"/>
<path fill-rule="evenodd" clip-rule="evenodd" d="M14.0891 20.946L13.7127 23.9085L16.1636 22.1853L14.0891 20.946Z" fill="#EB8F35"/>
<path fill-rule="evenodd" clip-rule="evenodd" d="M16.3468 17.89L16.5808 21.9475L15.8788 19.8763L16.3468 17.89Z" fill="#EA8E3A"/>
<path fill-rule="evenodd" clip-rule="evenodd" d="M11.923 20.9969L14.0896 20.946L13.7132 23.9085L11.923 20.9969Z" fill="#D87C30"/>
<path fill-rule="evenodd" clip-rule="evenodd" d="M9.71399 25.1987L13.7124 23.9084L11.9223 20.9968L8.67674 21.2345L9.71399 25.1987Z" fill="#EB8F35"/>
<path fill-rule="evenodd" clip-rule="evenodd" d="M16.0636 14.1635L14.0394 15.8867L12.4918 17.7966L16.348 17.9409L16.0636 14.1635Z" fill="#E8821E"/>
<path fill-rule="evenodd" clip-rule="evenodd" d="M15.3101 18.7472L15.8287 19.8507L13.9968 19.3669L15.3101 18.7472Z" fill="#393939"/>
<path fill-rule="evenodd" clip-rule="evenodd" d="M9.66427 9.24866L16.0634 14.1635L14.9843 11.4896L9.66427 9.24866Z" fill="#E88F35"/>
<path fill-rule="evenodd" clip-rule="evenodd" d="M9.66377 9.24866L8.81892 11.8716L9.28735 14.7407L8.96115 14.9275L9.42958 15.3604L9.05316 15.6915L9.57176 16.1668L9.24555 16.4554L9.99839 17.4061L13.5284 16.3112C15.2516 14.9105 16.1048 14.1975 16.0713 14.1635C16.0378 14.1296 13.9048 12.4913 9.66377 9.24866Z" fill="#8E5A30"/>
</g>
<defs>
<clipPath id="clip0_1114_7616">
<rect width="33" height="33" fill="white" transform="translate(0.976746 0.998657)"/>
</clipPath>
</defs>
</svg>
