<svg width="60" height="61" viewBox="0 0 60 61" fill="none" xmlns="http://www.w3.org/2000/svg">
<g clip-path="url(#clip0_1111_6849)">
<path d="M29.9999 60.866C46.5685 60.866 59.9999 47.4346 59.9999 30.866C59.9999 14.2975 46.5685 0.866028 29.9999 0.866028C13.4314 0.866028 -6.10352e-05 14.2975 -6.10352e-05 30.866C-6.10352e-05 47.4346 13.4314 60.866 29.9999 60.866Z" fill="#34363D"/>
<path d="M15.9999 26.407V22.7349L19.0929 21.04L22.1046 22.8559L18.9708 24.5507V28.2229L15.9999 26.407Z" fill="#E9B941"/>
<path d="M18.9708 30.8055L15.9999 29.0703V38.8761L24.465 43.6781V40.2481L18.9708 37.1006V30.8055Z" fill="#E9B941"/>
<path d="M29.9592 14.866L21.5349 19.7084L24.5058 21.3628L29.9592 18.2557L35.4534 21.3628L38.3837 19.7084L29.9592 14.866Z" fill="#E9B941"/>
<path d="M21.5349 29.5949V26.0035L24.5058 24.2279L29.9592 27.3351L35.4534 24.2279L38.5057 26.0035V29.5949L33.0929 32.6617V38.8761L29.9592 40.6516L26.8256 38.8761V32.6617L21.5349 29.5949Z" fill="#E9B941"/>
<path d="M29.9592 21.1207L26.9476 22.8559L29.9592 24.5911L33.0522 22.8559L29.9592 21.1207Z" fill="#E9B941"/>
<path d="M40.8255 21.04L37.8546 22.8559L40.8255 24.5507V28.2229L43.9999 26.4473V22.8559L40.8255 21.04Z" fill="#E9B941"/>
<path d="M43.9999 29.0703L40.8255 30.8055V37.1006L35.4534 40.2481V43.6781L43.9999 38.8761V29.0703Z" fill="#E9B941"/>
<path d="M35.4534 37.5444V33.953L38.5057 32.3389V35.8093L35.4534 37.5444Z" fill="#E9B941"/>
<path d="M21.3314 32.3389L24.5058 33.953L24.4651 37.5444L21.3314 35.8093V32.3389Z" fill="#E9B941"/>
<path d="M29.9593 43.3956L26.8256 41.6201V45.0098L29.9593 46.866L33.093 45.0098V41.6201L29.9593 43.3956Z" fill="#E9B941"/>
</g>
<defs>
<clipPath id="clip0_1111_6849">
<rect width="60" height="60" fill="white" transform="translate(-6.10352e-05 0.866028)"/>
</clipPath>
</defs>
</svg>
