<svg width="61" height="61" viewBox="0 0 61 61" fill="none" xmlns="http://www.w3.org/2000/svg">
<g clip-path="url(#clip0_1111_6838)">
<path d="M30.2441 60.866C46.8127 60.866 60.2441 47.4346 60.2441 30.866C60.2441 14.2975 46.8127 0.866028 30.2441 0.866028C13.6756 0.866028 0.244141 14.2975 0.244141 30.866C0.244141 47.4346 13.6756 60.866 30.2441 60.866Z" fill="#C8EBFF"/>
<path d="M30.2436 26.7982V14.866L20.7701 31.1372L30.2436 26.7982Z" fill="#6CB3DB"/>
<path d="M30.2446 26.7982V14.866L39.7181 31.1372L30.2446 26.7982Z" fill="#4A6C9B"/>
<path d="M30.2436 39.8151L20.7701 33.3066L30.2436 28.7327L39.7171 33.3066L30.2436 39.8151Z" fill="#133444"/>
<path d="M30.2436 37.1032V26.7981L20.7701 31.1371L30.2436 37.1032Z" fill="#3D5578"/>
<path d="M30.2446 37.1032V26.7981L39.7181 31.1371L30.2446 37.1032Z" fill="#1A425A"/>
<path d="M20.2441 36.0184C20.2441 34.7167 20.595 33.4874 20.7704 33.3066L30.2439 39.815C30.2439 40.8998 29.9457 42.0478 29.2439 43.1326C27.1387 46.3868 23.4019 44.6964 21.823 41.9845C20.2441 39.2727 20.2441 37.6455 20.2441 36.0184Z" fill="#6CB3DB"/>
<path d="M40.2441 36.0185C40.2441 34.7168 39.8932 33.4875 39.7178 33.3067L30.2443 39.8151C30.2443 40.8999 30.5425 42.048 31.2442 43.1327C33.3495 46.3869 37.0862 44.6965 38.6652 41.9846C40.2441 39.2728 40.2441 37.6456 40.2441 36.0185Z" fill="#4A6C9B"/>
<path d="M26.0336 44.6966C29.1914 44.6966 30.244 41.4423 30.244 39.8152C30.244 41.4423 31.2966 44.6966 34.4545 44.6966C36.5597 44.6966 38.1386 42.5271 38.6649 41.9847C37.086 44.6966 34.0334 46.8661 30.244 46.8661C26.4546 46.8661 23.402 44.6966 21.8231 41.9847C22.3494 42.5271 23.9283 44.6966 26.0336 44.6966Z" fill="#509CBA"/>
</g>
<defs>
<clipPath id="clip0_1111_6838">
<rect width="60" height="60" fill="white" transform="translate(0.244141 0.866028)"/>
</clipPath>
</defs>
</svg>
